<?xml version="1.0" encoding="utf-8"?>
<!-- Generator: Adobe Illustrator 25.3.0, SVG Export Plug-In . SVG Version: 6.00 Build 0)  -->
<svg version="1.1" id="Layer_1" xmlns="http://www.w3.org/2000/svg" xmlns:xlink="http://www.w3.org/1999/xlink" x="0px" y="0px"
	 viewBox="0 0 303 341.2" style="enable-background:new 0 0 303 341.2;" xml:space="preserve">
<style type="text/css">
	.st0{fill:#7B7A7B;}
</style>
<g id="Layer_2_1_">
	<g id="Layer_1-2">
		<path class="st0" d="M0,24.2V13.9c9.9,1.6,14.8-3.9,16.4-13.8H29c2.1,9.5,7.3,13.7,14.5,14.4C52.2,13.8,58.2,9.7,60,0.1h12.6
			c3.2,8,7.9,13.2,14.8,14c6.9,0,12.9-3.1,16.8-14h12.8c-2,0.5,8.4,13.7,13.8,12.9c7.5,0.5,13.6-2.6,16.9-12.9h12.9
			c3.4,9.2,8.6,13.2,16.3,13.1c6.7,0.8,11.1-3.6,15.2-12.8l14-0.2c1.8,9.5,6.7,13.2,13.7,13c7.8-0.4,14-3.5,16.4-13h12.5
			c2.1,9.3,7.7,12.3,14.9,13.1c-0.2,0.1,11.2,1,14.3-13.1c0.2-0.3,11.7,0,11.7,0c0.3,9.6,7.4,11.4,13.3,14V28
			c-9.2,2.1-11.6,7.9-12.2,15.7c2.7,8.5,7,12.2,12.2,13.2v13.2c-8.4,1.8-11.5,7.7-12.6,15c0,0-1,12.3,12.6,14.5v13.5
			c0,0-11.8-0.2-12.4,14.4s12.4,15,12.4,15V156c1.1-1.7-28.8,13.3-0.5,27.9v14.1c0,0-11-0.6-12.3,12.6s12.1,15.4,12.1,15.4V240
			c0,0-13.1,0.8-12.2,14.9s13,13.6,13,13.6v12.2c0,0-13.2-0.2-12.5,14.8s11.9,14.9,11.9,14.9v14.8c0,0-15.9,0.6-14,15.9h-13.8
			c-0.2,0.7-3.7-14.6-15.5-12.9c-12.6,1.8-14.5,12.9-14.5,12.9h-14.4c0,0-2.8-15.3-14.9-12.9S201,340.5,201,340.5l-13.9,0.6
			c0,0-1.9-14.8-14.5-13c-7.1,0.8-13,6-14.5,13h-13.8c0,0-3.2-15.5-15.2-13c-6.9,1.3-12.5,6.3-14.5,13h-12.4c0,0-0.8-14.1-15.4-13.5
			s-14.4,13.5-14.4,13.5H60.5c0,0-2.3-14-15.2-13s-13.8,13-13.8,13H17.1c0,0-0.9-15.9-17.1-14.5l0.1-12.4c0,0,14.9,1,16.9-12.4
			S0.7,286.7,0.7,286.7l0.1-12.5c0,0,14.4,2.3,16.1-13.5c1.3-12.8-16.7-14.5-15.9-16l-0.1-11.6h23.2c0,0,5.1,0.8,5.9,5.4
			S30,313.1,30,313.1s-0.9,3.3,3.3,3.4s241.1-0.2,241.1-0.2s4.7,0,4.9-3.8S280,29.2,280,29.2s-0.6-4.5-4.9-4.1S0,24.2,0,24.2z"/>
	</g>
</g>
</svg>
